<?xml version="1.0" encoding="UTF-8" standalone="no"?>
<!-- Created with Inkscape (http://www.inkscape.org/) -->

<svg
   version="1.1"
   id="svg1"
   width="106.05174"
   height="135.96587"
   viewBox="0 0 106.05174 135.96587"
   xmlns="http://www.w3.org/2000/svg"
   xmlns:svg="http://www.w3.org/2000/svg">
  <defs
     id="defs1">
    <clipPath
       clipPathUnits="userSpaceOnUse"
       id="clipPath51">
      <path
         d="M 0,0 H 750 V 500 H 0 Z"
         transform="translate(-79.036599,-452.06401)"
         id="path51" />
    </clipPath>
    <clipPath
       clipPathUnits="userSpaceOnUse"
       id="clipPath53">
      <path
         d="M 0,0 H 750 V 500 H 0 Z"
         transform="translate(-91.888705,-452.06401)"
         id="path53" />
    </clipPath>
    <clipPath
       clipPathUnits="userSpaceOnUse"
       id="clipPath55">
      <path
         d="M 0,0 H 750 V 500 H 0 Z"
         transform="translate(-104.74071,-452.06401)"
         id="path55" />
    </clipPath>
    <clipPath
       clipPathUnits="userSpaceOnUse"
       id="clipPath57">
      <path
         d="M 0,0 H 750 V 500 H 0 Z"
         transform="translate(-117.5923,-452.06401)"
         id="path57" />
    </clipPath>
    <clipPath
       clipPathUnits="userSpaceOnUse"
       id="clipPath59">
      <path
         d="M 0,0 H 750 V 500 H 0 Z"
         transform="translate(-130.4443,-452.06401)"
         id="path59" />
    </clipPath>
    <clipPath
       clipPathUnits="userSpaceOnUse"
       id="clipPath61">
      <path
         d="M 0,0 H 750 V 500 H 0 Z"
         transform="translate(-143.29641,-452.06401)"
         id="path61" />
    </clipPath>
    <clipPath
       clipPathUnits="userSpaceOnUse"
       id="clipPath63">
      <path
         d="M 0,0 H 750 V 500 H 0 Z"
         transform="translate(-156.14841,-452.06401)"
         id="path63" />
    </clipPath>
    <clipPath
       clipPathUnits="userSpaceOnUse"
       id="clipPath65">
      <path
         d="M 0,0 H 750 V 500 H 0 Z"
         transform="translate(-79.036599,-437.84281)"
         id="path65" />
    </clipPath>
    <clipPath
       clipPathUnits="userSpaceOnUse"
       id="clipPath67">
      <path
         d="M 0,0 H 750 V 500 H 0 Z"
         transform="translate(-91.888705,-437.84281)"
         id="path67" />
    </clipPath>
    <clipPath
       clipPathUnits="userSpaceOnUse"
       id="clipPath69">
      <path
         d="M 0,0 H 750 V 500 H 0 Z"
         transform="translate(-104.74071,-437.84281)"
         id="path69" />
    </clipPath>
    <clipPath
       clipPathUnits="userSpaceOnUse"
       id="clipPath71">
      <path
         d="M 0,0 H 750 V 500 H 0 Z"
         transform="translate(-117.5923,-437.84281)"
         id="path71" />
    </clipPath>
    <clipPath
       clipPathUnits="userSpaceOnUse"
       id="clipPath73">
      <path
         d="M 0,0 H 750 V 500 H 0 Z"
         transform="translate(-130.4443,-437.84281)"
         id="path73" />
    </clipPath>
    <clipPath
       clipPathUnits="userSpaceOnUse"
       id="clipPath75">
      <path
         d="M 0,0 H 750 V 500 H 0 Z"
         transform="translate(-143.29641,-437.84281)"
         id="path75" />
    </clipPath>
    <clipPath
       clipPathUnits="userSpaceOnUse"
       id="clipPath77">
      <path
         d="M 0,0 H 750 V 500 H 0 Z"
         transform="translate(-156.14841,-437.84281)"
         id="path77" />
    </clipPath>
    <clipPath
       clipPathUnits="userSpaceOnUse"
       id="clipPath79">
      <path
         d="M 0,0 H 750 V 500 H 0 Z"
         transform="translate(-79.036599,-423.62161)"
         id="path79" />
    </clipPath>
    <clipPath
       clipPathUnits="userSpaceOnUse"
       id="clipPath81">
      <path
         d="M 0,0 H 750 V 500 H 0 Z"
         transform="translate(-91.888705,-423.62161)"
         id="path81" />
    </clipPath>
    <clipPath
       clipPathUnits="userSpaceOnUse"
       id="clipPath83">
      <path
         d="M 0,0 H 750 V 500 H 0 Z"
         transform="translate(-104.74071,-423.62161)"
         id="path83" />
    </clipPath>
    <clipPath
       clipPathUnits="userSpaceOnUse"
       id="clipPath85">
      <path
         d="M 0,0 H 750 V 500 H 0 Z"
         transform="translate(-117.5923,-423.62161)"
         id="path85" />
    </clipPath>
    <clipPath
       clipPathUnits="userSpaceOnUse"
       id="clipPath87">
      <path
         d="M 0,0 H 750 V 500 H 0 Z"
         transform="translate(-130.4443,-423.62161)"
         id="path87" />
    </clipPath>
    <clipPath
       clipPathUnits="userSpaceOnUse"
       id="clipPath89">
      <path
         d="M 0,0 H 750 V 500 H 0 Z"
         transform="translate(-143.29641,-423.62161)"
         id="path89" />
    </clipPath>
    <clipPath
       clipPathUnits="userSpaceOnUse"
       id="clipPath91">
      <path
         d="M 0,0 H 750 V 500 H 0 Z"
         transform="translate(-156.14841,-423.62161)"
         id="path91" />
    </clipPath>
    <clipPath
       clipPathUnits="userSpaceOnUse"
       id="clipPath93">
      <path
         d="M 0,0 H 750 V 500 H 0 Z"
         transform="translate(-79.036599,-409.40041)"
         id="path93" />
    </clipPath>
    <clipPath
       clipPathUnits="userSpaceOnUse"
       id="clipPath95">
      <path
         d="M 0,0 H 750 V 500 H 0 Z"
         transform="translate(-91.888705,-409.40041)"
         id="path95" />
    </clipPath>
    <clipPath
       clipPathUnits="userSpaceOnUse"
       id="clipPath97">
      <path
         d="M 0,0 H 750 V 500 H 0 Z"
         transform="translate(-104.74071,-409.40041)"
         id="path97" />
    </clipPath>
    <clipPath
       clipPathUnits="userSpaceOnUse"
       id="clipPath99">
      <path
         d="M 0,0 H 750 V 500 H 0 Z"
         transform="translate(-117.5923,-409.40041)"
         id="path99" />
    </clipPath>
    <clipPath
       clipPathUnits="userSpaceOnUse"
       id="clipPath101">
      <path
         d="M 0,0 H 750 V 500 H 0 Z"
         transform="translate(-130.4443,-409.40041)"
         id="path101" />
    </clipPath>
    <clipPath
       clipPathUnits="userSpaceOnUse"
       id="clipPath103">
      <path
         d="M 0,0 H 750 V 500 H 0 Z"
         transform="translate(-143.29641,-409.40041)"
         id="path103" />
    </clipPath>
    <clipPath
       clipPathUnits="userSpaceOnUse"
       id="clipPath105">
      <path
         d="M 0,0 H 750 V 500 H 0 Z"
         transform="translate(-156.14841,-409.40041)"
         id="path105" />
    </clipPath>
    <clipPath
       clipPathUnits="userSpaceOnUse"
       id="clipPath107">
      <path
         d="M 0,0 H 750 V 500 H 0 Z"
         transform="translate(-79.036599,-395.17921)"
         id="path107" />
    </clipPath>
    <clipPath
       clipPathUnits="userSpaceOnUse"
       id="clipPath109">
      <path
         d="M 0,0 H 750 V 500 H 0 Z"
         transform="translate(-91.888705,-395.17921)"
         id="path109" />
    </clipPath>
    <clipPath
       clipPathUnits="userSpaceOnUse"
       id="clipPath111">
      <path
         d="M 0,0 H 750 V 500 H 0 Z"
         transform="translate(-104.74071,-395.17921)"
         id="path111" />
    </clipPath>
    <clipPath
       clipPathUnits="userSpaceOnUse"
       id="clipPath113">
      <path
         d="M 0,0 H 750 V 500 H 0 Z"
         transform="translate(-117.5923,-395.17921)"
         id="path113" />
    </clipPath>
    <clipPath
       clipPathUnits="userSpaceOnUse"
       id="clipPath115">
      <path
         d="M 0,0 H 750 V 500 H 0 Z"
         transform="translate(-130.4443,-395.17921)"
         id="path115" />
    </clipPath>
    <clipPath
       clipPathUnits="userSpaceOnUse"
       id="clipPath117">
      <path
         d="M 0,0 H 750 V 500 H 0 Z"
         transform="translate(-143.29641,-395.17921)"
         id="path117" />
    </clipPath>
    <clipPath
       clipPathUnits="userSpaceOnUse"
       id="clipPath119">
      <path
         d="M 0,0 H 750 V 500 H 0 Z"
         transform="translate(-156.14841,-395.17921)"
         id="path119" />
    </clipPath>
    <clipPath
       clipPathUnits="userSpaceOnUse"
       id="clipPath121">
      <path
         d="M 0,0 H 750 V 500 H 0 Z"
         transform="translate(-79.036599,-380.95801)"
         id="path121" />
    </clipPath>
    <clipPath
       clipPathUnits="userSpaceOnUse"
       id="clipPath123">
      <path
         d="M 0,0 H 750 V 500 H 0 Z"
         transform="translate(-91.888705,-380.95801)"
         id="path123" />
    </clipPath>
    <clipPath
       clipPathUnits="userSpaceOnUse"
       id="clipPath125">
      <path
         d="M 0,0 H 750 V 500 H 0 Z"
         transform="translate(-104.74071,-380.95801)"
         id="path125" />
    </clipPath>
    <clipPath
       clipPathUnits="userSpaceOnUse"
       id="clipPath127">
      <path
         d="M 0,0 H 750 V 500 H 0 Z"
         transform="translate(-117.5923,-380.95801)"
         id="path127" />
    </clipPath>
    <clipPath
       clipPathUnits="userSpaceOnUse"
       id="clipPath129">
      <path
         d="M 0,0 H 750 V 500 H 0 Z"
         transform="translate(-130.4443,-380.95801)"
         id="path129" />
    </clipPath>
    <clipPath
       clipPathUnits="userSpaceOnUse"
       id="clipPath131">
      <path
         d="M 0,0 H 750 V 500 H 0 Z"
         transform="translate(-143.29641,-380.95801)"
         id="path131" />
    </clipPath>
    <clipPath
       clipPathUnits="userSpaceOnUse"
       id="clipPath133">
      <path
         d="M 0,0 H 750 V 500 H 0 Z"
         transform="translate(-156.14841,-380.95801)"
         id="path133" />
    </clipPath>
    <clipPath
       clipPathUnits="userSpaceOnUse"
       id="clipPath135">
      <path
         d="M 0,0 H 750 V 500 H 0 Z"
         transform="translate(-79.036599,-366.73681)"
         id="path135" />
    </clipPath>
    <clipPath
       clipPathUnits="userSpaceOnUse"
       id="clipPath137">
      <path
         d="M 0,0 H 750 V 500 H 0 Z"
         transform="translate(-91.888705,-366.73681)"
         id="path137" />
    </clipPath>
    <clipPath
       clipPathUnits="userSpaceOnUse"
       id="clipPath139">
      <path
         d="M 0,0 H 750 V 500 H 0 Z"
         transform="translate(-104.74071,-366.73681)"
         id="path139" />
    </clipPath>
    <clipPath
       clipPathUnits="userSpaceOnUse"
       id="clipPath141">
      <path
         d="M 0,0 H 750 V 500 H 0 Z"
         transform="translate(-117.5923,-366.73681)"
         id="path141" />
    </clipPath>
    <clipPath
       clipPathUnits="userSpaceOnUse"
       id="clipPath143">
      <path
         d="M 0,0 H 750 V 500 H 0 Z"
         transform="translate(-130.4443,-366.73681)"
         id="path143" />
    </clipPath>
    <clipPath
       clipPathUnits="userSpaceOnUse"
       id="clipPath145">
      <path
         d="M 0,0 H 750 V 500 H 0 Z"
         transform="translate(-143.29641,-366.73681)"
         id="path145" />
    </clipPath>
    <clipPath
       clipPathUnits="userSpaceOnUse"
       id="clipPath147">
      <path
         d="M 0,0 H 750 V 500 H 0 Z"
         transform="translate(-156.14841,-366.73681)"
         id="path147" />
    </clipPath>
    <clipPath
       clipPathUnits="userSpaceOnUse"
       id="clipPath149">
      <path
         d="M 0,0 H 750 V 500 H 0 Z"
         transform="translate(-79.036599,-352.51561)"
         id="path149" />
    </clipPath>
    <clipPath
       clipPathUnits="userSpaceOnUse"
       id="clipPath151">
      <path
         d="M 0,0 H 750 V 500 H 0 Z"
         transform="translate(-91.888705,-352.51561)"
         id="path151" />
    </clipPath>
    <clipPath
       clipPathUnits="userSpaceOnUse"
       id="clipPath153">
      <path
         d="M 0,0 H 750 V 500 H 0 Z"
         transform="translate(-104.74071,-352.51561)"
         id="path153" />
    </clipPath>
    <clipPath
       clipPathUnits="userSpaceOnUse"
       id="clipPath155">
      <path
         d="M 0,0 H 750 V 500 H 0 Z"
         transform="translate(-117.5923,-352.51561)"
         id="path155" />
    </clipPath>
    <clipPath
       clipPathUnits="userSpaceOnUse"
       id="clipPath157">
      <path
         d="M 0,0 H 750 V 500 H 0 Z"
         transform="translate(-130.4443,-352.51561)"
         id="path157" />
    </clipPath>
    <clipPath
       clipPathUnits="userSpaceOnUse"
       id="clipPath159">
      <path
         d="M 0,0 H 750 V 500 H 0 Z"
         transform="translate(-143.29641,-352.51561)"
         id="path159" />
    </clipPath>
    <clipPath
       clipPathUnits="userSpaceOnUse"
       id="clipPath161">
      <path
         d="M 0,0 H 750 V 500 H 0 Z"
         transform="translate(-156.14841,-352.51561)"
         id="path161" />
    </clipPath>
  </defs>
  <g
     id="layer-MC1"
     style="display:inline"
     transform="translate(-102.14613,-62.297332)">
    <g
       id="g1404">
      <path
         id="path50"
         d="m 0,0 c 0,-0.67 -0.543,-1.214 -1.213,-1.214 -0.671,0 -1.214,0.544 -1.214,1.214 0,0.67 0.543,1.213 1.214,1.213 C -0.543,1.213 0,0.67 0,0"
         style="fill:#ff1d48;fill-opacity:1;fill-rule:nonzero;stroke:none"
         transform="matrix(1.3333333,0,0,-1.3333333,105.38213,63.914667)"
         clip-path="url(#clipPath51)" />
      <path
         id="path52"
         d="m 0,0 c 0,-0.67 -0.543,-1.214 -1.214,-1.214 -0.67,0 -1.213,0.544 -1.213,1.214 0,0.67 0.543,1.213 1.213,1.213 C -0.543,1.213 0,0.67 0,0"
         style="fill:#ff1d48;fill-opacity:1;fill-rule:nonzero;stroke:none"
         transform="matrix(1.3333333,0,0,-1.3333333,122.51827,63.914667)"
         clip-path="url(#clipPath53)" />
      <path
         id="path54"
         d="m 0,0 c 0,-0.67 -0.543,-1.214 -1.214,-1.214 -0.67,0 -1.214,0.544 -1.214,1.214 0,0.67 0.544,1.213 1.214,1.213 C -0.543,1.213 0,0.67 0,0"
         style="fill:#ff1d48;fill-opacity:1;fill-rule:nonzero;stroke:none"
         transform="matrix(1.3333333,0,0,-1.3333333,139.65427,63.914667)"
         clip-path="url(#clipPath55)" />
      <path
         id="path56"
         d="m 0,0 c 0,-0.67 -0.543,-1.214 -1.213,-1.214 -0.671,0 -1.214,0.544 -1.214,1.214 0,0.67 0.543,1.213 1.214,1.213 C -0.543,1.213 0,0.67 0,0"
         style="fill:#ff1d48;fill-opacity:1;fill-rule:nonzero;stroke:none"
         transform="matrix(1.3333333,0,0,-1.3333333,156.78973,63.914667)"
         clip-path="url(#clipPath57)" />
      <path
         id="path58"
         d="m 0,0 c 0,-0.67 -0.543,-1.214 -1.213,-1.214 -0.671,0 -1.214,0.544 -1.214,1.214 0,0.67 0.543,1.213 1.214,1.213 C -0.543,1.213 0,0.67 0,0"
         style="fill:#ffffff;fill-opacity:1;fill-rule:nonzero;stroke:none"
         transform="matrix(1.3333333,0,0,-1.3333333,173.92573,63.914667)"
         clip-path="url(#clipPath59)" />
      <path
         id="path60"
         d="m 0,0 c 0,-0.67 -0.543,-1.214 -1.214,-1.214 -0.67,0 -1.213,0.544 -1.213,1.214 0,0.67 0.543,1.213 1.213,1.213 C -0.543,1.213 0,0.67 0,0"
         style="fill:#ff1d48;fill-opacity:1;fill-rule:nonzero;stroke:none"
         transform="matrix(1.3333333,0,0,-1.3333333,191.06187,63.914667)"
         clip-path="url(#clipPath61)" />
      <path
         id="path62"
         d="m 0,0 c 0,-0.67 -0.543,-1.214 -1.214,-1.214 -0.67,0 -1.213,0.544 -1.213,1.214 0,0.67 0.543,1.213 1.213,1.213 C -0.543,1.213 0,0.67 0,0"
         style="fill:#ff1d48;fill-opacity:1;fill-rule:nonzero;stroke:none"
         transform="matrix(1.3333333,0,0,-1.3333333,208.19787,63.914667)"
         clip-path="url(#clipPath63)" />
      <path
         id="path64"
         d="m 0,0 c 0,-0.67 -0.543,-1.214 -1.213,-1.214 -0.671,0 -1.214,0.544 -1.214,1.214 0,0.67 0.543,1.213 1.214,1.213 C -0.543,1.213 0,0.67 0,0"
         style="fill:#ffffff;fill-opacity:1;fill-rule:nonzero;stroke:none"
         transform="matrix(1.3333333,0,0,-1.3333333,105.38213,82.876267)"
         clip-path="url(#clipPath65)" />
      <path
         id="path66"
         d="m 0,0 c 0,-0.67 -0.543,-1.214 -1.214,-1.214 -0.67,0 -1.213,0.544 -1.213,1.214 0,0.67 0.543,1.213 1.213,1.213 C -0.543,1.213 0,0.67 0,0"
         style="fill:#ff1d48;fill-opacity:1;fill-rule:nonzero;stroke:none"
         transform="matrix(1.3333333,0,0,-1.3333333,122.51827,82.876267)"
         clip-path="url(#clipPath67)" />
      <path
         id="path68"
         d="m 0,0 c 0,-0.67 -0.543,-1.214 -1.214,-1.214 -0.67,0 -1.214,0.544 -1.214,1.214 0,0.67 0.544,1.213 1.214,1.213 C -0.543,1.213 0,0.67 0,0"
         style="fill:#ff1d48;fill-opacity:1;fill-rule:nonzero;stroke:none"
         transform="matrix(1.3333333,0,0,-1.3333333,139.65427,82.876267)"
         clip-path="url(#clipPath69)" />
      <path
         id="path70"
         d="m 0,0 c 0,-0.67 -0.543,-1.214 -1.213,-1.214 -0.671,0 -1.214,0.544 -1.214,1.214 0,0.67 0.543,1.213 1.214,1.213 C -0.543,1.213 0,0.67 0,0"
         style="fill:#ff1d48;fill-opacity:1;fill-rule:nonzero;stroke:none"
         transform="matrix(1.3333333,0,0,-1.3333333,156.78973,82.876267)"
         clip-path="url(#clipPath71)" />
      <path
         id="path72"
         d="m 0,0 c 0,-0.67 -0.543,-1.214 -1.213,-1.214 -0.671,0 -1.214,0.544 -1.214,1.214 0,0.67 0.543,1.213 1.214,1.213 C -0.543,1.213 0,0.67 0,0"
         style="fill:#ff1d48;fill-opacity:1;fill-rule:nonzero;stroke:none"
         transform="matrix(1.3333333,0,0,-1.3333333,173.92573,82.876267)"
         clip-path="url(#clipPath73)" />
      <path
         id="path74"
         d="m 0,0 c 0,-0.67 -0.543,-1.214 -1.214,-1.214 -0.67,0 -1.213,0.544 -1.213,1.214 0,0.67 0.543,1.213 1.213,1.213 C -0.543,1.213 0,0.67 0,0"
         style="fill:#ff1d48;fill-opacity:1;fill-rule:nonzero;stroke:none"
         transform="matrix(1.3333333,0,0,-1.3333333,191.06187,82.876267)"
         clip-path="url(#clipPath75)" />
      <path
         id="path76"
         d="m 0,0 c 0,-0.67 -0.543,-1.214 -1.214,-1.214 -0.67,0 -1.213,0.544 -1.213,1.214 0,0.67 0.543,1.213 1.213,1.213 C -0.543,1.213 0,0.67 0,0"
         style="fill:#ff1d48;fill-opacity:1;fill-rule:nonzero;stroke:none"
         transform="matrix(1.3333333,0,0,-1.3333333,208.19787,82.876267)"
         clip-path="url(#clipPath77)" />
      <path
         id="path78"
         d="m 0,0 c 0,-0.67 -0.543,-1.214 -1.213,-1.214 -0.671,0 -1.214,0.544 -1.214,1.214 0,0.67 0.543,1.213 1.214,1.213 C -0.543,1.213 0,0.67 0,0"
         style="fill:#ff1d48;fill-opacity:1;fill-rule:nonzero;stroke:none"
         transform="matrix(1.3333333,0,0,-1.3333333,105.38213,101.83787)"
         clip-path="url(#clipPath79)" />
      <path
         id="path80"
         d="m 0,0 c 0,-0.67 -0.543,-1.214 -1.214,-1.214 -0.67,0 -1.213,0.544 -1.213,1.214 0,0.67 0.543,1.213 1.213,1.213 C -0.543,1.213 0,0.67 0,0"
         style="fill:#ff1d48;fill-opacity:1;fill-rule:nonzero;stroke:none"
         transform="matrix(1.3333333,0,0,-1.3333333,122.51827,101.83787)"
         clip-path="url(#clipPath81)" />
      <path
         id="path82"
         d="m 0,0 c 0,-0.67 -0.543,-1.214 -1.214,-1.214 -0.67,0 -1.214,0.544 -1.214,1.214 0,0.67 0.544,1.213 1.214,1.213 C -0.543,1.213 0,0.67 0,0"
         style="fill:#ffffff;fill-opacity:1;fill-rule:nonzero;stroke:none"
         transform="matrix(1.3333333,0,0,-1.3333333,139.65427,101.83787)"
         clip-path="url(#clipPath83)" />
      <path
         id="path84"
         d="m 0,0 c 0,-0.67 -0.543,-1.214 -1.213,-1.214 -0.671,0 -1.214,0.544 -1.214,1.214 0,0.67 0.543,1.213 1.214,1.213 C -0.543,1.213 0,0.67 0,0"
         style="fill:#ff1d48;fill-opacity:1;fill-rule:nonzero;stroke:none"
         transform="matrix(1.3333333,0,0,-1.3333333,156.78973,101.83787)"
         clip-path="url(#clipPath85)" />
      <path
         id="path86"
         d="m 0,0 c 0,-0.67 -0.543,-1.214 -1.213,-1.214 -0.671,0 -1.214,0.544 -1.214,1.214 0,0.67 0.543,1.213 1.214,1.213 C -0.543,1.213 0,0.67 0,0"
         style="fill:#ff1d48;fill-opacity:1;fill-rule:nonzero;stroke:none"
         transform="matrix(1.3333333,0,0,-1.3333333,173.92573,101.83787)"
         clip-path="url(#clipPath87)" />
      <path
         id="path88"
         d="m 0,0 c 0,-0.67 -0.543,-1.214 -1.214,-1.214 -0.67,0 -1.213,0.544 -1.213,1.214 0,0.67 0.543,1.213 1.213,1.213 C -0.543,1.213 0,0.67 0,0"
         style="fill:#ff1d48;fill-opacity:1;fill-rule:nonzero;stroke:none"
         transform="matrix(1.3333333,0,0,-1.3333333,191.06187,101.83787)"
         clip-path="url(#clipPath89)" />
      <path
         id="path90"
         d="m 0,0 c 0,-0.67 -0.543,-1.214 -1.214,-1.214 -0.67,0 -1.213,0.544 -1.213,1.214 0,0.67 0.543,1.213 1.213,1.213 C -0.543,1.213 0,0.67 0,0"
         style="fill:#ff1d48;fill-opacity:1;fill-rule:nonzero;stroke:none"
         transform="matrix(1.3333333,0,0,-1.3333333,208.19787,101.83787)"
         clip-path="url(#clipPath91)" />
      <path
         id="path92"
         d="m 0,0 c 0,-0.67 -0.543,-1.214 -1.213,-1.214 -0.671,0 -1.214,0.544 -1.214,1.214 0,0.67 0.543,1.213 1.214,1.213 C -0.543,1.213 0,0.67 0,0"
         style="fill:#ff1d48;fill-opacity:1;fill-rule:nonzero;stroke:none"
         transform="matrix(1.3333333,0,0,-1.3333333,105.38213,120.79947)"
         clip-path="url(#clipPath93)" />
      <path
         id="path94"
         d="m 0,0 c 0,-0.67 -0.543,-1.214 -1.214,-1.214 -0.67,0 -1.213,0.544 -1.213,1.214 0,0.67 0.543,1.213 1.213,1.213 C -0.543,1.213 0,0.67 0,0"
         style="fill:#ff1d48;fill-opacity:1;fill-rule:nonzero;stroke:none"
         transform="matrix(1.3333333,0,0,-1.3333333,122.51827,120.79947)"
         clip-path="url(#clipPath95)" />
      <path
         id="path96"
         d="m 0,0 c 0,-0.67 -0.543,-1.214 -1.214,-1.214 -0.67,0 -1.214,0.544 -1.214,1.214 0,0.67 0.544,1.213 1.214,1.213 C -0.543,1.213 0,0.67 0,0"
         style="fill:#ff1d48;fill-opacity:1;fill-rule:nonzero;stroke:none"
         transform="matrix(1.3333333,0,0,-1.3333333,139.65427,120.79947)"
         clip-path="url(#clipPath97)" />
      <path
         id="path98"
         d="m 0,0 c 0,-0.67 -0.543,-1.214 -1.213,-1.214 -0.671,0 -1.214,0.544 -1.214,1.214 0,0.67 0.543,1.213 1.214,1.213 C -0.543,1.213 0,0.67 0,0"
         style="fill:#ff1d48;fill-opacity:1;fill-rule:nonzero;stroke:none"
         transform="matrix(1.3333333,0,0,-1.3333333,156.78973,120.79947)"
         clip-path="url(#clipPath99)" />
      <path
         id="path100"
         d="m 0,0 c 0,-0.67 -0.543,-1.214 -1.213,-1.214 -0.671,0 -1.214,0.544 -1.214,1.214 0,0.67 0.543,1.213 1.214,1.213 C -0.543,1.213 0,0.67 0,0"
         style="fill:#ffffff;fill-opacity:1;fill-rule:nonzero;stroke:none"
         transform="matrix(1.3333333,0,0,-1.3333333,173.92573,120.79947)"
         clip-path="url(#clipPath101)" />
      <path
         id="path102"
         d="m 0,0 c 0,-0.67 -0.543,-1.214 -1.214,-1.214 -0.67,0 -1.213,0.544 -1.213,1.214 0,0.67 0.543,1.213 1.213,1.213 C -0.543,1.213 0,0.67 0,0"
         style="fill:#ff1d48;fill-opacity:1;fill-rule:nonzero;stroke:none"
         transform="matrix(1.3333333,0,0,-1.3333333,191.06187,120.79947)"
         clip-path="url(#clipPath103)" />
      <path
         id="path104"
         d="m 0,0 c 0,-0.67 -0.543,-1.214 -1.214,-1.214 -0.67,0 -1.213,0.544 -1.213,1.214 0,0.67 0.543,1.213 1.213,1.213 C -0.543,1.213 0,0.67 0,0"
         style="fill:#ff1d48;fill-opacity:1;fill-rule:nonzero;stroke:none"
         transform="matrix(1.3333333,0,0,-1.3333333,208.19787,120.79947)"
         clip-path="url(#clipPath105)" />
      <path
         id="path106"
         d="m 0,0 c 0,-0.67 -0.543,-1.213 -1.213,-1.213 -0.671,0 -1.214,0.543 -1.214,1.213 0,0.67 0.543,1.213 1.214,1.213 C -0.543,1.213 0,0.67 0,0"
         style="fill:#ff1d48;fill-opacity:1;fill-rule:nonzero;stroke:none"
         transform="matrix(1.3333333,0,0,-1.3333333,105.38213,139.76107)"
         clip-path="url(#clipPath107)" />
      <path
         id="path108"
         d="m 0,0 c 0,-0.67 -0.543,-1.213 -1.214,-1.213 -0.67,0 -1.213,0.543 -1.213,1.213 0,0.67 0.543,1.213 1.213,1.213 C -0.543,1.213 0,0.67 0,0"
         style="fill:#ff1d48;fill-opacity:1;fill-rule:nonzero;stroke:none"
         transform="matrix(1.3333333,0,0,-1.3333333,122.51827,139.76107)"
         clip-path="url(#clipPath109)" />
      <path
         id="path110"
         d="m 0,0 c 0,-0.67 -0.543,-1.213 -1.214,-1.213 -0.67,0 -1.214,0.543 -1.214,1.213 0,0.67 0.544,1.213 1.214,1.213 C -0.543,1.213 0,0.67 0,0"
         style="fill:#ff1d48;fill-opacity:1;fill-rule:nonzero;stroke:none"
         transform="matrix(1.3333333,0,0,-1.3333333,139.65427,139.76107)"
         clip-path="url(#clipPath111)" />
      <path
         id="path112"
         d="m 0,0 c 0,-0.67 -0.543,-1.213 -1.213,-1.213 -0.671,0 -1.214,0.543 -1.214,1.213 0,0.67 0.543,1.213 1.214,1.213 C -0.543,1.213 0,0.67 0,0"
         style="fill:#ff1d48;fill-opacity:1;fill-rule:nonzero;stroke:none"
         transform="matrix(1.3333333,0,0,-1.3333333,156.78973,139.76107)"
         clip-path="url(#clipPath113)" />
      <path
         id="path114"
         d="m 0,0 c 0,-0.67 -0.543,-1.213 -1.213,-1.213 -0.671,0 -1.214,0.543 -1.214,1.213 0,0.67 0.543,1.213 1.214,1.213 C -0.543,1.213 0,0.67 0,0"
         style="fill:#ff1d48;fill-opacity:1;fill-rule:nonzero;stroke:none"
         transform="matrix(1.3333333,0,0,-1.3333333,173.92573,139.76107)"
         clip-path="url(#clipPath115)" />
      <path
         id="path116"
         d="m 0,0 c 0,-0.67 -0.543,-1.213 -1.214,-1.213 -0.67,0 -1.213,0.543 -1.213,1.213 0,0.67 0.543,1.213 1.213,1.213 C -0.543,1.213 0,0.67 0,0"
         style="fill:#ff1d48;fill-opacity:1;fill-rule:nonzero;stroke:none"
         transform="matrix(1.3333333,0,0,-1.3333333,191.06187,139.76107)"
         clip-path="url(#clipPath117)" />
      <path
         id="path118"
         d="m 0,0 c 0,-0.67 -0.543,-1.213 -1.214,-1.213 -0.67,0 -1.213,0.543 -1.213,1.213 0,0.67 0.543,1.213 1.213,1.213 C -0.543,1.213 0,0.67 0,0"
         style="fill:#ff1d48;fill-opacity:1;fill-rule:nonzero;stroke:none"
         transform="matrix(1.3333333,0,0,-1.3333333,208.19787,139.76107)"
         clip-path="url(#clipPath119)" />
      <path
         id="path120"
         d="m 0,0 c 0,-0.67 -0.543,-1.213 -1.213,-1.213 -0.671,0 -1.214,0.543 -1.214,1.213 0,0.67 0.543,1.214 1.214,1.214 C -0.543,1.214 0,0.67 0,0"
         style="fill:#ff1d48;fill-opacity:1;fill-rule:nonzero;stroke:none"
         transform="matrix(1.3333333,0,0,-1.3333333,105.38213,158.72267)"
         clip-path="url(#clipPath121)" />
      <path
         id="path122"
         d="m 0,0 c 0,-0.67 -0.543,-1.213 -1.214,-1.213 -0.67,0 -1.213,0.543 -1.213,1.213 0,0.67 0.543,1.214 1.213,1.214 C -0.543,1.214 0,0.67 0,0"
         style="fill:#ff1d48;fill-opacity:1;fill-rule:nonzero;stroke:none"
         transform="matrix(1.3333333,0,0,-1.3333333,122.51827,158.72267)"
         clip-path="url(#clipPath123)" />
      <path
         id="path124"
         d="m 0,0 c 0,-0.67 -0.543,-1.213 -1.214,-1.213 -0.67,0 -1.214,0.543 -1.214,1.213 0,0.67 0.544,1.214 1.214,1.214 C -0.543,1.214 0,0.67 0,0"
         style="fill:#ff1d48;fill-opacity:1;fill-rule:nonzero;stroke:none"
         transform="matrix(1.3333333,0,0,-1.3333333,139.65427,158.72267)"
         clip-path="url(#clipPath125)" />
      <path
         id="path126"
         d="m 0,0 c 0,-0.67 -0.543,-1.213 -1.213,-1.213 -0.671,0 -1.214,0.543 -1.214,1.213 0,0.67 0.543,1.214 1.214,1.214 C -0.543,1.214 0,0.67 0,0"
         style="fill:#ffffff;fill-opacity:1;fill-rule:nonzero;stroke:none"
         transform="matrix(1.3333333,0,0,-1.3333333,156.78973,158.72267)"
         clip-path="url(#clipPath127)" />
      <path
         id="path128"
         d="m 0,0 c 0,-0.67 -0.543,-1.213 -1.213,-1.213 -0.671,0 -1.214,0.543 -1.214,1.213 0,0.67 0.543,1.214 1.214,1.214 C -0.543,1.214 0,0.67 0,0"
         style="fill:#ff1d48;fill-opacity:1;fill-rule:nonzero;stroke:none"
         transform="matrix(1.3333333,0,0,-1.3333333,173.92573,158.72267)"
         clip-path="url(#clipPath129)" />
      <path
         id="path130"
         d="m 0,0 c 0,-0.67 -0.543,-1.213 -1.214,-1.213 -0.67,0 -1.213,0.543 -1.213,1.213 0,0.67 0.543,1.214 1.213,1.214 C -0.543,1.214 0,0.67 0,0"
         style="fill:#ff1d48;fill-opacity:1;fill-rule:nonzero;stroke:none"
         transform="matrix(1.3333333,0,0,-1.3333333,191.06187,158.72267)"
         clip-path="url(#clipPath131)" />
      <path
         id="path132"
         d="m 0,0 c 0,-0.67 -0.543,-1.213 -1.214,-1.213 -0.67,0 -1.213,0.543 -1.213,1.213 0,0.67 0.543,1.214 1.213,1.214 C -0.543,1.214 0,0.67 0,0"
         style="fill:#ff1d48;fill-opacity:1;fill-rule:nonzero;stroke:none"
         transform="matrix(1.3333333,0,0,-1.3333333,208.19787,158.72267)"
         clip-path="url(#clipPath133)" />
      <path
         id="path134"
         d="m 0,0 c 0,-0.67 -0.543,-1.213 -1.213,-1.213 -0.671,0 -1.214,0.543 -1.214,1.213 0,0.67 0.543,1.214 1.214,1.214 C -0.543,1.214 0,0.67 0,0"
         style="fill:#ff1d48;fill-opacity:1;fill-rule:nonzero;stroke:none"
         transform="matrix(1.3333333,0,0,-1.3333333,105.38213,177.68427)"
         clip-path="url(#clipPath135)" />
      <path
         id="path136"
         d="m 0,0 c 0,-0.67 -0.543,-1.213 -1.214,-1.213 -0.67,0 -1.213,0.543 -1.213,1.213 0,0.67 0.543,1.214 1.213,1.214 C -0.543,1.214 0,0.67 0,0"
         style="fill:#ff1d48;fill-opacity:1;fill-rule:nonzero;stroke:none"
         transform="matrix(1.3333333,0,0,-1.3333333,122.51827,177.68427)"
         clip-path="url(#clipPath137)" />
      <path
         id="path138"
         d="m 0,0 c 0,-0.67 -0.543,-1.213 -1.214,-1.213 -0.67,0 -1.214,0.543 -1.214,1.213 0,0.67 0.544,1.214 1.214,1.214 C -0.543,1.214 0,0.67 0,0"
         style="fill:#ff1d48;fill-opacity:1;fill-rule:nonzero;stroke:none"
         transform="matrix(1.3333333,0,0,-1.3333333,139.65427,177.68427)"
         clip-path="url(#clipPath139)" />
      <path
         id="path140"
         d="m 0,0 c 0,-0.67 -0.543,-1.213 -1.213,-1.213 -0.671,0 -1.214,0.543 -1.214,1.213 0,0.67 0.543,1.214 1.214,1.214 C -0.543,1.214 0,0.67 0,0"
         style="fill:#ff1d48;fill-opacity:1;fill-rule:nonzero;stroke:none"
         transform="matrix(1.3333333,0,0,-1.3333333,156.78973,177.68427)"
         clip-path="url(#clipPath141)" />
      <path
         id="path142"
         d="m 0,0 c 0,-0.67 -0.543,-1.213 -1.213,-1.213 -0.671,0 -1.214,0.543 -1.214,1.213 0,0.67 0.543,1.214 1.214,1.214 C -0.543,1.214 0,0.67 0,0"
         style="fill:#ff1d48;fill-opacity:1;fill-rule:nonzero;stroke:none"
         transform="matrix(1.3333333,0,0,-1.3333333,173.92573,177.68427)"
         clip-path="url(#clipPath143)" />
      <path
         id="path144"
         d="m 0,0 c 0,-0.67 -0.543,-1.213 -1.214,-1.213 -0.67,0 -1.213,0.543 -1.213,1.213 0,0.67 0.543,1.214 1.213,1.214 C -0.543,1.214 0,0.67 0,0"
         style="fill:#ffffff;fill-opacity:1;fill-rule:nonzero;stroke:none"
         transform="matrix(1.3333333,0,0,-1.3333333,191.06187,177.68427)"
         clip-path="url(#clipPath145)" />
      <path
         id="path146"
         d="m 0,0 c 0,-0.67 -0.543,-1.213 -1.214,-1.213 -0.67,0 -1.213,0.543 -1.213,1.213 0,0.67 0.543,1.214 1.213,1.214 C -0.543,1.214 0,0.67 0,0"
         style="fill:#ff1d48;fill-opacity:1;fill-rule:nonzero;stroke:none"
         transform="matrix(1.3333333,0,0,-1.3333333,208.19787,177.68427)"
         clip-path="url(#clipPath147)" />
      <path
         id="path148"
         d="m 0,0 c 0,-0.67 -0.543,-1.213 -1.213,-1.213 -0.671,0 -1.214,0.543 -1.214,1.213 0,0.67 0.543,1.214 1.214,1.214 C -0.543,1.214 0,0.67 0,0"
         style="fill:#ff1d48;fill-opacity:1;fill-rule:nonzero;stroke:none"
         transform="matrix(1.3333333,0,0,-1.3333333,105.38213,196.64587)"
         clip-path="url(#clipPath149)" />
      <path
         id="path150"
         d="m 0,0 c 0,-0.67 -0.543,-1.213 -1.214,-1.213 -0.67,0 -1.213,0.543 -1.213,1.213 0,0.67 0.543,1.214 1.213,1.214 C -0.543,1.214 0,0.67 0,0"
         style="fill:#ffffff;fill-opacity:1;fill-rule:nonzero;stroke:none"
         transform="matrix(1.3333333,0,0,-1.3333333,122.51827,196.64587)"
         clip-path="url(#clipPath151)" />
      <path
         id="path152"
         d="m 0,0 c 0,-0.67 -0.543,-1.213 -1.214,-1.213 -0.67,0 -1.214,0.543 -1.214,1.213 0,0.67 0.544,1.214 1.214,1.214 C -0.543,1.214 0,0.67 0,0"
         style="fill:#ff1d48;fill-opacity:1;fill-rule:nonzero;stroke:none"
         transform="matrix(1.3333333,0,0,-1.3333333,139.65427,196.64587)"
         clip-path="url(#clipPath153)" />
      <path
         id="path154"
         d="m 0,0 c 0,-0.67 -0.543,-1.213 -1.213,-1.213 -0.671,0 -1.214,0.543 -1.214,1.213 0,0.67 0.543,1.214 1.214,1.214 C -0.543,1.214 0,0.67 0,0"
         style="fill:#ff1d48;fill-opacity:1;fill-rule:nonzero;stroke:none"
         transform="matrix(1.3333333,0,0,-1.3333333,156.78973,196.64587)"
         clip-path="url(#clipPath155)" />
      <path
         id="path156"
         d="m 0,0 c 0,-0.67 -0.543,-1.213 -1.213,-1.213 -0.671,0 -1.214,0.543 -1.214,1.213 0,0.67 0.543,1.214 1.214,1.214 C -0.543,1.214 0,0.67 0,0"
         style="fill:#ff1d48;fill-opacity:1;fill-rule:nonzero;stroke:none"
         transform="matrix(1.3333333,0,0,-1.3333333,173.92573,196.64587)"
         clip-path="url(#clipPath157)" />
      <path
         id="path158"
         d="m 0,0 c 0,-0.67 -0.543,-1.213 -1.214,-1.213 -0.67,0 -1.213,0.543 -1.213,1.213 0,0.67 0.543,1.214 1.213,1.214 C -0.543,1.214 0,0.67 0,0"
         style="fill:#ff1d48;fill-opacity:1;fill-rule:nonzero;stroke:none"
         transform="matrix(1.3333333,0,0,-1.3333333,191.06187,196.64587)"
         clip-path="url(#clipPath159)" />
      <path
         id="path160"
         d="m 0,0 c 0,-0.67 -0.543,-1.213 -1.214,-1.213 -0.67,0 -1.213,0.543 -1.213,1.213 0,0.67 0.543,1.214 1.213,1.214 C -0.543,1.214 0,0.67 0,0"
         style="fill:#ff1d48;fill-opacity:1;fill-rule:nonzero;stroke:none"
         transform="matrix(1.3333333,0,0,-1.3333333,208.19787,196.64587)"
         clip-path="url(#clipPath161)" />
    </g>
  </g>
</svg>
